<svg width="140" height="24" viewBox="0 0 140 24" xmlns="http://www.w3.org/2000/svg">
	<path d="M21.6242 0C27.6823 0 32.6971 4.44005 33.5568 10.2275C33.6598 10.915 34.2388 11.4296 34.9376 11.4521C37.6851 11.5421 40.4253 11.6729 43.13 11.8604H43.132C43.3079 11.8729 43.3079 12.1271 43.132 12.1396C40.4272 12.3271 37.6871 12.4579 34.9396 12.5479C34.2409 12.5705 33.6628 13.0851 33.5597 13.7725C32.6975 19.56 27.6848 24 21.6242 24C15.5636 23.9999 10.5493 19.5569 9.68959 13.7695C9.58636 13.0822 9.00742 12.5674 8.30873 12.5449C5.56889 12.4549 2.83159 12.3246 0.131972 12.1396C-0.0439907 12.1271 -0.0439907 11.8729 0.131972 11.8604C2.83159 11.6754 5.56638 11.5451 8.30873 11.4551C9.00742 11.4326 9.58636 10.9178 9.68959 10.2305C10.5518 4.44306 15.5661 0.0001386 21.6242 0ZM104.126 7.39941C106.27 7.39952 107.931 8.1502 109.068 9.62988C110.196 11.1048 110.561 12.8822 110.144 14.917C110.106 15.1345 110.04 15.3922 109.97 15.6172C109.907 15.8122 109.724 15.9443 109.518 15.9443H98.0646C97.9418 15.9447 97.839 16.0478 97.8439 16.1699C97.8841 17.2922 98.2566 18.2019 98.9552 18.8818C99.747 19.6518 100.853 20.0419 102.243 20.042C104.126 20.0419 105.727 19.2426 106.823 17.9277C106.977 17.7454 107.242 17.7053 107.443 17.835L108.414 18.4648C108.66 18.6248 108.665 18.9372 108.502 19.1797C107.987 19.9496 106.748 20.9698 105.86 21.3799C104.629 21.9498 103.329 22.2402 101.994 22.2402C99.7975 22.2402 98.0849 21.49 96.9035 20.0127C95.7272 18.5402 95.3223 16.6867 95.6994 14.5068C96.0564 12.4496 97.0449 10.7322 98.6359 9.40234C100.227 8.07497 101.982 7.39948 104.126 7.39941ZM76.1398 7.39746C77.3688 7.39746 78.5155 7.68733 79.546 8.26465C80.2347 8.64958 80.8136 9.15229 81.2736 9.76465C81.3918 9.92196 81.6378 9.86724 81.673 9.6748L81.9542 8.11523C81.9945 7.89052 82.1907 7.72783 82.4191 7.72754H83.6759C83.9698 7.72754 84.194 7.99207 84.1417 8.2793L81.7433 21.5195C81.7031 21.7444 81.5071 21.9071 81.2785 21.9072H80.0236C79.7297 21.9069 79.506 21.6418 79.5587 21.3545L79.6798 20.6895C79.717 20.4823 79.4753 20.3475 79.3146 20.4824C77.922 21.6472 76.1498 22.2373 74.1515 22.2373C72.1534 22.2372 70.5243 21.4599 69.3078 19.9277C68.0938 18.4003 67.6612 16.5747 68.0206 14.5049C68.4153 12.2625 69.4032 10.4972 70.9591 9.25977C72.5125 8.02488 74.2547 7.39758 76.1398 7.39746ZM120.634 1.75977C122.195 1.75987 123.524 2.28052 124.585 3.30273C125.658 4.34016 126.038 5.76996 125.714 7.55469C125.392 9.37894 124.357 10.8002 122.631 11.7852C123.38 12.2647 123.96 12.8914 124.352 13.6523C124.804 14.5322 124.947 15.5327 124.774 16.625C124.449 18.4348 123.562 19.8373 122.137 20.7998C120.724 21.7523 119.027 22.2344 117.094 22.2344C115.295 22.2343 113.801 21.6848 112.66 20.5977C111.502 19.4977 111.079 18.0221 111.405 16.2197C111.576 15.1149 112.047 14.1327 112.801 13.3027C113.464 12.5703 114.284 11.9851 115.241 11.5576C113.841 10.4601 113.296 8.9744 113.617 7.14453C113.939 5.37725 114.784 4.01974 116.129 3.1123C117.461 2.21493 118.978 1.75982 120.634 1.75977ZM139.527 2.09473C139.818 2.09473 140.042 2.35722 139.992 2.64453L139.721 4.19727C139.716 4.22222 139.705 4.24706 139.693 4.26953L129.416 21.6777C129.331 21.8224 129.177 21.9102 129.009 21.9102H127.468C127.104 21.9096 126.875 21.5144 127.061 21.2021L136.817 4.67773C136.902 4.53028 136.797 4.34483 136.626 4.34473H129.774C129.666 4.34487 129.575 4.41979 129.555 4.52441L129.047 7.33984C129.007 7.56474 128.811 7.72744 128.582 7.72754H127.33C127.036 7.72735 126.813 7.4622 126.865 7.1748L127.71 2.47949V2.48242C127.75 2.25762 127.946 2.09488 128.175 2.09473H139.527ZM53.8781 7.39258C54.8357 7.39258 55.676 7.62749 56.3722 8.08984C56.8797 8.42974 57.2871 8.87984 57.5812 9.43457C57.6541 9.57206 57.8399 9.58957 57.9454 9.47461C59.1997 8.09473 60.7615 7.39461 62.5939 7.39453C64.1068 7.39464 65.3156 7.92038 66.1828 8.95508C67.05 9.99004 67.3345 11.3978 67.0304 13.1377L65.5451 21.5225C65.5048 21.7449 65.3133 21.9043 65.0871 21.9043H63.8156C63.5267 21.9041 63.3073 21.6447 63.3576 21.3623L64.8283 13.0723C65.0193 11.9499 64.883 11.077 64.423 10.4795C63.968 9.89 63.2417 9.58989 62.2619 9.58984C61.2264 9.58991 60.3062 9.92269 59.5246 10.5801C58.7428 11.2401 58.192 12.3076 57.8878 13.75L56.5099 21.5225C56.4696 21.7448 56.2789 21.9042 56.0529 21.9043H54.7804C54.4916 21.9039 54.2731 21.6446 54.3234 21.3623L55.7941 13.0723C55.9851 11.9299 55.8668 11.0519 55.4445 10.4619C55.0297 9.88472 54.353 9.5918 53.4357 9.5918C52.3852 9.5919 51.4271 9.94201 50.5851 10.6318C49.7431 11.3218 49.1622 12.4097 48.8605 13.8594L47.4728 21.5273C47.4325 21.7472 47.2394 21.9072 47.0158 21.9072H45.7433L45.7384 21.9043C45.4496 21.9039 45.2312 21.6446 45.2814 21.3623L47.6818 8.10449C47.7221 7.88481 47.9163 7.72476 48.1398 7.72461H49.4113C49.7003 7.72461 49.9194 7.98514 49.8693 8.26758L49.839 8.43457C49.8038 8.63701 50.0369 8.77183 50.2003 8.64453C51.2686 7.81213 52.5032 7.39268 53.8781 7.39258ZM89.2794 2.0918C89.5734 2.09181 89.7943 2.35718 89.7443 2.64453L87.8917 12.9023C87.8566 13.1022 88.0879 13.2396 88.2462 13.1123L94.7169 7.96484C94.7998 7.89748 94.9055 7.86238 95.0109 7.8623H96.7423C97.1898 7.8623 97.3866 8.42269 97.0372 8.7002L89.7921 14.4277C89.6946 14.5052 89.6819 14.6473 89.7619 14.7422L95.2951 21.1299C95.5588 21.4349 95.3398 21.9043 94.9376 21.9043H93.3917C93.2538 21.9042 93.1227 21.845 93.0324 21.7402L87.7658 15.625C87.6451 15.4856 87.415 15.5475 87.382 15.7295H87.3839L86.3429 21.5195C86.3027 21.7445 86.1068 21.9072 85.8781 21.9072H84.6212C84.3274 21.9069 84.1061 21.6418 84.1564 21.3545L87.5578 2.47949C87.5982 2.25734 87.7941 2.09195 88.0226 2.0918H89.2794ZM12.7658 12.6602C12.1978 12.6503 11.7577 13.1551 11.8556 13.71C12.6726 18.3374 16.7401 21.8651 21.6242 21.8652C26.5082 21.8652 30.5756 18.3402 31.3927 13.7129C31.4908 13.1579 31.0507 12.6496 30.4826 12.6621C27.5089 12.7221 24.545 12.7502 21.6242 12.7627C18.7033 12.7477 15.7369 12.7202 12.7658 12.6602ZM76.2863 9.59766C74.9065 9.59773 73.6164 10.0524 72.4552 10.9521C71.2965 11.8471 70.5674 13.1149 70.2833 14.7197C70.037 16.1871 70.3287 17.4553 71.1505 18.4902C71.9699 19.5198 73.1287 20.0418 74.5988 20.042H74.6017C76.0521 20.042 77.3743 19.5767 78.5255 18.6543C79.6742 17.7344 80.4007 16.5497 80.6847 15.1299L80.7482 14.7822C80.9944 13.18 80.6649 11.9022 79.7677 10.9873C78.8629 10.0651 77.666 9.59776 76.2863 9.59766ZM118.728 12.9395C117.451 12.9396 116.339 13.2475 115.422 13.8574C114.52 14.4549 113.967 15.3326 113.776 16.4648C113.572 17.5796 113.807 18.4372 114.478 19.0146C115.169 19.6145 116.117 19.9169 117.429 19.917C118.741 19.9169 119.862 19.6073 120.759 19L120.762 18.9971C121.644 18.3996 122.2 17.5199 122.408 16.3877C122.597 15.2978 122.343 14.4445 121.654 13.8545C120.943 13.2472 120.004 12.9395 118.728 12.9395ZM104.015 9.59473C102.615 9.59484 101.373 9.99992 100.319 10.7998L100.322 10.8027C99.4252 11.4852 98.7537 12.3749 98.3214 13.4521C98.2637 13.592 98.3743 13.7468 98.5275 13.7471H107.766C107.884 13.747 107.986 13.6522 107.986 13.5322C108.007 12.3049 107.687 11.3522 107.036 10.6973C106.31 9.96506 105.292 9.59473 104.015 9.59473ZM21.6242 2.13477C16.7401 2.1349 12.6726 5.66263 11.8556 10.29C11.7577 10.8449 12.1978 11.3522 12.7658 11.3398C15.7394 11.2798 18.7033 11.2523 21.6242 11.2373C24.545 11.2523 27.5114 11.2779 30.4826 11.3379C31.0507 11.3504 31.4908 10.8421 31.3927 10.2871C30.5756 5.66231 26.5057 2.13477 21.6242 2.13477ZM120.304 4.08203C119.266 4.08214 118.321 4.36464 117.496 4.91699C116.687 5.45947 116.179 6.29283 115.988 7.3877C115.8 8.40733 116.019 9.20441 116.637 9.75684C117.273 10.3267 118.087 10.6151 119.06 10.6152C120.131 10.6152 121.078 10.3268 121.875 9.75684C122.662 9.19434 123.158 8.37201 123.349 7.30957C123.537 6.21729 123.336 5.3997 122.755 4.88477C122.154 4.35245 121.342 4.08203 120.304 4.08203Z"
		  fill="#0B0B0F"/>
</svg>
